<?xml version="1.0" encoding="UTF-8" standalone="no"?><svg xmlns="http://www.w3.org/2000/svg" xmlns:xlink="http://www.w3.org/1999/xlink" contentScriptType="application/ecmascript" contentStyleType="text/css" height="285px" preserveAspectRatio="none" style="width:363px;height:285px;background:#FFFFFF;" version="1.1" viewBox="0 0 363 285" width="363px" zoomAndPan="magnify"><defs><filter height="300%" id="f18fjhmli6rbub" width="300%" x="-1" y="-1"><feGaussianBlur result="blurOut" stdDeviation="2.0"/><feColorMatrix in="blurOut" result="blurOut2" type="matrix" values="0 0 0 0 0 0 0 0 0 0 0 0 0 0 0 0 0 0 .4 0"/><feOffset dx="4.0" dy="4.0" in="blurOut2" result="blurOut3"/><feBlend in="SourceGraphic" in2="blurOut3" mode="normal"/></filter></defs><g><!--MD5=[bb7f1c801adcc1c297b2d9190618259c]
class Tree--><rect fill="#FEFECE" filter="url(#f18fjhmli6rbub)" height="48" id="Tree" style="stroke:#A80036;stroke-width:1.5;" width="60" x="203" y="7"/><ellipse cx="218" cy="23" fill="#ADD1B2" rx="11" ry="11" style="stroke:#A80036;stroke-width:1.0;"/><path d="M220.9688,28.6406 Q220.3906,28.9375 219.75,29.0781 Q219.1094,29.2344 218.4063,29.2344 Q215.9063,29.2344 214.5781,27.5938 Q213.2656,25.9375 213.2656,22.8125 Q213.2656,19.6875 214.5781,18.0313 Q215.9063,16.375 218.4063,16.375 Q219.1094,16.375 219.75,16.5313 Q220.4063,16.6875 220.9688,16.9844 L220.9688,19.7031 Q220.3438,19.125 219.75,18.8594 Q219.1563,18.5781 218.5313,18.5781 Q217.1875,18.5781 216.5,19.6563 Q215.8125,20.7188 215.8125,22.8125 Q215.8125,24.9063 216.5,25.9844 Q217.1875,27.0469 218.5313,27.0469 Q219.1563,27.0469 219.75,26.7813 Q220.3438,26.5 220.9688,25.9219 L220.9688,28.6406 Z " fill="#000000"/><text fill="#000000" font-family="sans-serif" font-size="12" lengthAdjust="spacing" textLength="28" x="232" y="27.1543">Tree</text><line style="stroke:#A80036;stroke-width:1.5;" x1="204" x2="262" y1="39" y2="39"/><line style="stroke:#A80036;stroke-width:1.5;" x1="204" x2="262" y1="47" y2="47"/><!--MD5=[3fee75583bb7a64f68d843a3c9534ab3]
class Node--><rect fill="#FEFECE" filter="url(#f18fjhmli6rbub)" height="48" id="Node" style="stroke:#A80036;stroke-width:1.5;" width="65" x="153.5" y="115"/><ellipse cx="168.5" cy="131" fill="#ADD1B2" rx="11" ry="11" style="stroke:#A80036;stroke-width:1.0;"/><path d="M171.4688,136.6406 Q170.8906,136.9375 170.25,137.0781 Q169.6094,137.2344 168.9063,137.2344 Q166.4063,137.2344 165.0781,135.5938 Q163.7656,133.9375 163.7656,130.8125 Q163.7656,127.6875 165.0781,126.0313 Q166.4063,124.375 168.9063,124.375 Q169.6094,124.375 170.25,124.5313 Q170.9063,124.6875 171.4688,124.9844 L171.4688,127.7031 Q170.8438,127.125 170.25,126.8594 Q169.6563,126.5781 169.0313,126.5781 Q167.6875,126.5781 167,127.6563 Q166.3125,128.7188 166.3125,130.8125 Q166.3125,132.9063 167,133.9844 Q167.6875,135.0469 169.0313,135.0469 Q169.6563,135.0469 170.25,134.7813 Q170.8438,134.5 171.4688,133.9219 L171.4688,136.6406 Z " fill="#000000"/><text fill="#000000" font-family="sans-serif" font-size="12" lengthAdjust="spacing" textLength="33" x="182.5" y="135.1543">Node</text><line style="stroke:#A80036;stroke-width:1.5;" x1="154.5" x2="217.5" y1="147" y2="147"/><line style="stroke:#A80036;stroke-width:1.5;" x1="154.5" x2="217.5" y1="155" y2="155"/><!--MD5=[b141ac2eb7978bf1fbd9bd34737ff014]
class TypesNode--><rect fill="#FEFECE" filter="url(#f18fjhmli6rbub)" height="48" id="TypesNode" style="stroke:#A80036;stroke-width:1.5;" width="101" x="124.5" y="223"/><ellipse cx="139.5" cy="239" fill="#ADD1B2" rx="11" ry="11" style="stroke:#A80036;stroke-width:1.0;"/><path d="M142.4688,244.6406 Q141.8906,244.9375 141.25,245.0781 Q140.6094,245.2344 139.9063,245.2344 Q137.4063,245.2344 136.0781,243.5938 Q134.7656,241.9375 134.7656,238.8125 Q134.7656,235.6875 136.0781,234.0313 Q137.4063,232.375 139.9063,232.375 Q140.6094,232.375 141.25,232.5313 Q141.9063,232.6875 142.4688,232.9844 L142.4688,235.7031 Q141.8438,235.125 141.25,234.8594 Q140.6563,234.5781 140.0313,234.5781 Q138.6875,234.5781 138,235.6563 Q137.3125,236.7188 137.3125,238.8125 Q137.3125,240.9063 138,241.9844 Q138.6875,243.0469 140.0313,243.0469 Q140.6563,243.0469 141.25,242.7813 Q141.8438,242.5 142.4688,241.9219 L142.4688,244.6406 Z " fill="#000000"/><text fill="#000000" font-family="sans-serif" font-size="12" lengthAdjust="spacing" textLength="69" x="153.5" y="243.1543">TypesNode</text><line style="stroke:#A80036;stroke-width:1.5;" x1="125.5" x2="224.5" y1="255" y2="255"/><line style="stroke:#A80036;stroke-width:1.5;" x1="125.5" x2="224.5" y1="263" y2="263"/><!--MD5=[02f7077ed79257124e28b791f351f1d7]
class Direction--><rect fill="#FEFECE" filter="url(#f18fjhmli6rbub)" height="48" id="Direction" style="stroke:#A80036;stroke-width:1.5;" width="88" x="261" y="223"/><ellipse cx="276" cy="239" fill="#ADD1B2" rx="11" ry="11" style="stroke:#A80036;stroke-width:1.0;"/><path d="M278.9688,244.6406 Q278.3906,244.9375 277.75,245.0781 Q277.1094,245.2344 276.4063,245.2344 Q273.9063,245.2344 272.5781,243.5938 Q271.2656,241.9375 271.2656,238.8125 Q271.2656,235.6875 272.5781,234.0313 Q273.9063,232.375 276.4063,232.375 Q277.1094,232.375 277.75,232.5313 Q278.4063,232.6875 278.9688,232.9844 L278.9688,235.7031 Q278.3438,235.125 277.75,234.8594 Q277.1563,234.5781 276.5313,234.5781 Q275.1875,234.5781 274.5,235.6563 Q273.8125,236.7188 273.8125,238.8125 Q273.8125,240.9063 274.5,241.9844 Q275.1875,243.0469 276.5313,243.0469 Q277.1563,243.0469 277.75,242.7813 Q278.3438,242.5 278.9688,241.9219 L278.9688,244.6406 Z " fill="#000000"/><text fill="#000000" font-family="sans-serif" font-size="12" lengthAdjust="spacing" textLength="56" x="290" y="243.1543">Direction</text><line style="stroke:#A80036;stroke-width:1.5;" x1="262" x2="348" y1="255" y2="255"/><line style="stroke:#A80036;stroke-width:1.5;" x1="262" x2="348" y1="263" y2="263"/><!--MD5=[ac13fc86d28e145c689c3994df7f7794]
class TreeManagement--><rect fill="#FEFECE" filter="url(#f18fjhmli6rbub)" height="48" id="TreeManagement" style="stroke:#A80036;stroke-width:1.5;" width="142" x="26" y="7"/><ellipse cx="41" cy="23" fill="#ADD1B2" rx="11" ry="11" style="stroke:#A80036;stroke-width:1.0;"/><path d="M43.9688,28.6406 Q43.3906,28.9375 42.75,29.0781 Q42.1094,29.2344 41.4063,29.2344 Q38.9063,29.2344 37.5781,27.5938 Q36.2656,25.9375 36.2656,22.8125 Q36.2656,19.6875 37.5781,18.0313 Q38.9063,16.375 41.4063,16.375 Q42.1094,16.375 42.75,16.5313 Q43.4063,16.6875 43.9688,16.9844 L43.9688,19.7031 Q43.3438,19.125 42.75,18.8594 Q42.1563,18.5781 41.5313,18.5781 Q40.1875,18.5781 39.5,19.6563 Q38.8125,20.7188 38.8125,22.8125 Q38.8125,24.9063 39.5,25.9844 Q40.1875,27.0469 41.5313,27.0469 Q42.1563,27.0469 42.75,26.7813 Q43.3438,26.5 43.9688,25.9219 L43.9688,28.6406 Z " fill="#000000"/><text fill="#000000" font-family="sans-serif" font-size="12" lengthAdjust="spacing" textLength="110" x="55" y="27.1543">TreeManagement</text><line style="stroke:#A80036;stroke-width:1.5;" x1="27" x2="167" y1="39" y2="39"/><line style="stroke:#A80036;stroke-width:1.5;" x1="27" x2="167" y1="47" y2="47"/><!--MD5=[f0268dd29ee89052933f031546cb1cab]
class Menu--><rect fill="#FEFECE" filter="url(#f18fjhmli6rbub)" height="48" id="Menu" style="stroke:#A80036;stroke-width:1.5;" width="66" x="39" y="115"/><ellipse cx="54" cy="131" fill="#ADD1B2" rx="11" ry="11" style="stroke:#A80036;stroke-width:1.0;"/><path d="M56.9688,136.6406 Q56.3906,136.9375 55.75,137.0781 Q55.1094,137.2344 54.4063,137.2344 Q51.9063,137.2344 50.5781,135.5938 Q49.2656,133.9375 49.2656,130.8125 Q49.2656,127.6875 50.5781,126.0313 Q51.9063,124.375 54.4063,124.375 Q55.1094,124.375 55.75,124.5313 Q56.4063,124.6875 56.9688,124.9844 L56.9688,127.7031 Q56.3438,127.125 55.75,126.8594 Q55.1563,126.5781 54.5313,126.5781 Q53.1875,126.5781 52.5,127.6563 Q51.8125,128.7188 51.8125,130.8125 Q51.8125,132.9063 52.5,133.9844 Q53.1875,135.0469 54.5313,135.0469 Q55.1563,135.0469 55.75,134.7813 Q56.3438,134.5 56.9688,133.9219 L56.9688,136.6406 Z " fill="#000000"/><text fill="#000000" font-family="sans-serif" font-size="12" lengthAdjust="spacing" textLength="34" x="68" y="135.1543">Menu</text><line style="stroke:#A80036;stroke-width:1.5;" x1="40" x2="104" y1="147" y2="147"/><line style="stroke:#A80036;stroke-width:1.5;" x1="40" x2="104" y1="155" y2="155"/><!--MD5=[315b61b427ec618d6861d47eee00cca3]
class Console--><rect fill="#FEFECE" filter="url(#f18fjhmli6rbub)" height="48" id="Console" style="stroke:#A80036;stroke-width:1.5;" width="82" x="7" y="223"/><ellipse cx="22" cy="239" fill="#ADD1B2" rx="11" ry="11" style="stroke:#A80036;stroke-width:1.0;"/><path d="M24.9688,244.6406 Q24.3906,244.9375 23.75,245.0781 Q23.1094,245.2344 22.4063,245.2344 Q19.9063,245.2344 18.5781,243.5938 Q17.2656,241.9375 17.2656,238.8125 Q17.2656,235.6875 18.5781,234.0313 Q19.9063,232.375 22.4063,232.375 Q23.1094,232.375 23.75,232.5313 Q24.4063,232.6875 24.9688,232.9844 L24.9688,235.7031 Q24.3438,235.125 23.75,234.8594 Q23.1563,234.5781 22.5313,234.5781 Q21.1875,234.5781 20.5,235.6563 Q19.8125,236.7188 19.8125,238.8125 Q19.8125,240.9063 20.5,241.9844 Q21.1875,243.0469 22.5313,243.0469 Q23.1563,243.0469 23.75,242.7813 Q24.3438,242.5 24.9688,241.9219 L24.9688,244.6406 Z " fill="#000000"/><text fill="#000000" font-family="sans-serif" font-size="12" lengthAdjust="spacing" textLength="50" x="36" y="243.1543">Console</text><line style="stroke:#A80036;stroke-width:1.5;" x1="8" x2="88" y1="255" y2="255"/><line style="stroke:#A80036;stroke-width:1.5;" x1="8" x2="88" y1="263" y2="263"/><!--MD5=[b8ed46582af17d25e8f4609a75212b9d]
link Tree to Node--><path codeLine="1" d="M217.9349,65.9695 C217.9349,65.9695 206.73,91.25 201.61,102.78 " fill="none" id="Tree-Node" style="stroke:#A80036;stroke-width:1.0;"/><polygon fill="#A80036" points="196.34,114.68,203.6453,108.0745,198.3671,110.1094,196.3323,104.8311,196.34,114.68" style="stroke:#A80036;stroke-width:1.0;"/><line style="stroke:#A80036;stroke-width:1.0;" x1="198.3671" x2="201.61" y1="110.1094" y2="102.795"/><polygon fill="#A80036" points="222.8,55,216.7109,58.8631,217.9349,65.9695,224.024,62.1065,222.8,55" style="stroke:#A80036;stroke-width:1.0;"/><!--MD5=[31b339e6aab1a248e548961024b09a33]
link Node to TypesNode--><path codeLine="2" d="M182.3703,174.9358 C182.3703,174.9358 179.88,198.94 178.76,209.72 " fill="none" id="Node-TypesNode" style="stroke:#A80036;stroke-width:1.0;"/><polygon fill="#A80036" points="177.42,222.68,182.3284,214.1414,177.9366,217.7068,174.3712,213.3149,177.42,222.68" style="stroke:#A80036;stroke-width:1.0;"/><line style="stroke:#A80036;stroke-width:1.0;" x1="177.9366" x2="178.765" y1="217.7068" y2="209.75"/><polygon fill="#A80036" points="183.61,163,179.0115,168.5546,182.3703,174.9358,186.9687,169.3811,183.61,163" style="stroke:#A80036;stroke-width:1.0;"/><!--MD5=[04d9e02d151ce40a764f3688ffaf6c2c]
link Node to Direction--><path codeLine="3" d="M211.82,163 C230.41,179.55 255.53,201.93 275,219.28 " fill="none" id="Node-to-Direction" style="stroke:#A80036;stroke-width:1.0;"/><polygon fill="#A80036" points="278.82,222.68,274.7699,213.7024,275.0901,219.3502,269.4423,219.6703,278.82,222.68" style="stroke:#A80036;stroke-width:1.0;"/><!--MD5=[238d9226a56f8937ddc11bf919e5e891]
link TreeManagement to Tree--><path codeLine="4" d="M180.19,31 C180.19,31 186.84,31 189.66,31 " fill="none" id="TreeManagement-Tree" style="stroke:#A80036;stroke-width:1.0;"/><polygon fill="#A80036" points="202.87,31,193.87,27,197.87,31,193.87,35,202.87,31" style="stroke:#A80036;stroke-width:1.0;"/><line style="stroke:#A80036;stroke-width:1.0;" x1="197.87" x2="189.87" y1="31" y2="31"/><polygon fill="#A80036" points="168.19,31,174.19,35,180.19,31,174.19,27,168.19,31" style="stroke:#A80036;stroke-width:1.0;"/><!--MD5=[b70faca776d776ff2a265e9bdfe9e394]
link Menu to Console--><path codeLine="5" d="M66.79,163 C63.17,179 58.31,200.45 54.45,217.53 " fill="none" id="Menu-to-Console" style="stroke:#A80036;stroke-width:1.0;stroke-dasharray:7.0,7.0;"/><polygon fill="#A80036" points="53.28,222.68,59.1641,214.7821,54.3813,217.8028,51.3606,213.02,53.28,222.68" style="stroke:#A80036;stroke-width:1.0;"/><!--MD5=[98955f518a2a1eed34653651698063b7]
link TreeManagement to Menu--><path codeLine="6" d="M88.8249,66.6794 C88.8249,66.6794 83.1,90.95 80.5,101.95 " fill="none" id="TreeManagement-Menu" style="stroke:#A80036;stroke-width:1.0;"/><polygon fill="#A80036" points="77.5,114.68,83.4614,106.8403,78.6492,109.8139,75.6756,105.0016,77.5,114.68" style="stroke:#A80036;stroke-width:1.0;"/><line style="stroke:#A80036;stroke-width:1.0;" x1="78.6492" x2="80.485" y1="109.8139" y2="102.025"/><polygon fill="#A80036" points="91.58,55,86.3093,59.9214,88.8249,66.6794,94.0956,61.7581,91.58,55" style="stroke:#A80036;stroke-width:1.0;"/><!--MD5=[e2a6ce57fca839f92a27004c737127fe]
link TreeManagement to Node--><path codeLine="7" d="M116.31,55 C130.1,71.42 148.69,93.56 163.2,110.84 " fill="none" id="TreeManagement-to-Node" style="stroke:#A80036;stroke-width:1.0;stroke-dasharray:7.0,7.0;"/><polygon fill="#A80036" points="166.42,114.68,163.6966,105.2152,163.205,110.8506,157.5696,110.3591,166.42,114.68" style="stroke:#A80036;stroke-width:1.0;"/><!--MD5=[cfad639ea77fa6a8cf9929c072f4bf7c]
link Tree to Direction--><path codeLine="8" d="M240.84,55.31 C254.18,94.95 281.22,175.32 295.57,217.96 " fill="none" id="Tree-to-Direction" style="stroke:#A80036;stroke-width:1.0;stroke-dasharray:7.0,7.0;"/><polygon fill="#A80036" points="297.17,222.72,298.0833,212.9136,295.5717,217.9823,290.503,215.4708,297.17,222.72" style="stroke:#A80036;stroke-width:1.0;"/><!--MD5=[c8f493e9c79c95274182ded06dd979a1]
@startuml "BST"
Tree *-> Node 
Node *- -> TypesNode 
Node - -> Direction
TreeManagement *-> Tree 
Menu ..> Console
TreeManagement *- -> Menu 
TreeManagement ..> Node 
Tree ..> Direction

@enduml

PlantUML version 1.2022.0(Tue Jan 11 11:16:42 ECT 2022)
(GPL source distribution)
Java Runtime: OpenJDK Runtime Environment
JVM: OpenJDK 64-Bit Server VM
Default Encoding: UTF-8
Language: en
Country: US
--></g></svg>