<?xml version="1.0" encoding="UTF-8" standalone="no"?><svg xmlns="http://www.w3.org/2000/svg" xmlns:xlink="http://www.w3.org/1999/xlink" contentScriptType="application/ecmascript" contentStyleType="text/css" height="177px" preserveAspectRatio="none" style="width:258px;height:177px;background:#FFFFFF;" version="1.1" viewBox="0 0 258 177" width="258px" zoomAndPan="magnify"><defs><filter height="300%" id="f1na2b9jfsir5e" width="300%" x="-1" y="-1"><feGaussianBlur result="blurOut" stdDeviation="2.0"/><feColorMatrix in="blurOut" result="blurOut2" type="matrix" values="0 0 0 0 0 0 0 0 0 0 0 0 0 0 0 0 0 0 .4 0"/><feOffset dx="4.0" dy="4.0" in="blurOut2" result="blurOut3"/><feBlend in="SourceGraphic" in2="blurOut3" mode="normal"/></filter></defs><g><!--MD5=[bb7f1c801adcc1c297b2d9190618259c]
class Tree--><rect fill="#FEFECE" filter="url(#f1na2b9jfsir5e)" height="48" id="Tree" style="stroke:#A80036;stroke-width:1.5;" width="60" x="7" y="7"/><ellipse cx="22" cy="23" fill="#ADD1B2" rx="11" ry="11" style="stroke:#A80036;stroke-width:1.0;"/><path d="M24.9688,28.6406 Q24.3906,28.9375 23.75,29.0781 Q23.1094,29.2344 22.4063,29.2344 Q19.9063,29.2344 18.5781,27.5938 Q17.2656,25.9375 17.2656,22.8125 Q17.2656,19.6875 18.5781,18.0313 Q19.9063,16.375 22.4063,16.375 Q23.1094,16.375 23.75,16.5313 Q24.4063,16.6875 24.9688,16.9844 L24.9688,19.7031 Q24.3438,19.125 23.75,18.8594 Q23.1563,18.5781 22.5313,18.5781 Q21.1875,18.5781 20.5,19.6563 Q19.8125,20.7188 19.8125,22.8125 Q19.8125,24.9063 20.5,25.9844 Q21.1875,27.0469 22.5313,27.0469 Q23.1563,27.0469 23.75,26.7813 Q24.3438,26.5 24.9688,25.9219 L24.9688,28.6406 Z " fill="#000000"/><text fill="#000000" font-family="sans-serif" font-size="12" lengthAdjust="spacing" textLength="28" x="36" y="27.1543">Tree</text><line style="stroke:#A80036;stroke-width:1.5;" x1="8" x2="66" y1="39" y2="39"/><line style="stroke:#A80036;stroke-width:1.5;" x1="8" x2="66" y1="47" y2="47"/><!--MD5=[3fee75583bb7a64f68d843a3c9534ab3]
class Node--><rect fill="#FEFECE" filter="url(#f1na2b9jfsir5e)" height="48" id="Node" style="stroke:#A80036;stroke-width:1.5;" width="65" x="102.5" y="7"/><ellipse cx="117.5" cy="23" fill="#ADD1B2" rx="11" ry="11" style="stroke:#A80036;stroke-width:1.0;"/><path d="M120.4688,28.6406 Q119.8906,28.9375 119.25,29.0781 Q118.6094,29.2344 117.9063,29.2344 Q115.4063,29.2344 114.0781,27.5938 Q112.7656,25.9375 112.7656,22.8125 Q112.7656,19.6875 114.0781,18.0313 Q115.4063,16.375 117.9063,16.375 Q118.6094,16.375 119.25,16.5313 Q119.9063,16.6875 120.4688,16.9844 L120.4688,19.7031 Q119.8438,19.125 119.25,18.8594 Q118.6563,18.5781 118.0313,18.5781 Q116.6875,18.5781 116,19.6563 Q115.3125,20.7188 115.3125,22.8125 Q115.3125,24.9063 116,25.9844 Q116.6875,27.0469 118.0313,27.0469 Q118.6563,27.0469 119.25,26.7813 Q119.8438,26.5 120.4688,25.9219 L120.4688,28.6406 Z " fill="#000000"/><text fill="#000000" font-family="sans-serif" font-size="12" lengthAdjust="spacing" textLength="33" x="131.5" y="27.1543">Node</text><line style="stroke:#A80036;stroke-width:1.5;" x1="103.5" x2="166.5" y1="39" y2="39"/><line style="stroke:#A80036;stroke-width:1.5;" x1="103.5" x2="166.5" y1="47" y2="47"/><!--MD5=[b141ac2eb7978bf1fbd9bd34737ff014]
class TypesNode--><rect fill="#FEFECE" filter="url(#f1na2b9jfsir5e)" height="48" id="TypesNode" style="stroke:#A80036;stroke-width:1.5;" width="101" x="19.5" y="115"/><ellipse cx="34.5" cy="131" fill="#ADD1B2" rx="11" ry="11" style="stroke:#A80036;stroke-width:1.0;"/><path d="M37.4688,136.6406 Q36.8906,136.9375 36.25,137.0781 Q35.6094,137.2344 34.9063,137.2344 Q32.4063,137.2344 31.0781,135.5938 Q29.7656,133.9375 29.7656,130.8125 Q29.7656,127.6875 31.0781,126.0313 Q32.4063,124.375 34.9063,124.375 Q35.6094,124.375 36.25,124.5313 Q36.9063,124.6875 37.4688,124.9844 L37.4688,127.7031 Q36.8438,127.125 36.25,126.8594 Q35.6563,126.5781 35.0313,126.5781 Q33.6875,126.5781 33,127.6563 Q32.3125,128.7188 32.3125,130.8125 Q32.3125,132.9063 33,133.9844 Q33.6875,135.0469 35.0313,135.0469 Q35.6563,135.0469 36.25,134.7813 Q36.8438,134.5 37.4688,133.9219 L37.4688,136.6406 Z " fill="#000000"/><text fill="#000000" font-family="sans-serif" font-size="12" lengthAdjust="spacing" textLength="69" x="48.5" y="135.1543">TypesNode</text><line style="stroke:#A80036;stroke-width:1.5;" x1="20.5" x2="119.5" y1="147" y2="147"/><line style="stroke:#A80036;stroke-width:1.5;" x1="20.5" x2="119.5" y1="155" y2="155"/><!--MD5=[02f7077ed79257124e28b791f351f1d7]
class Direction--><rect fill="#FEFECE" filter="url(#f1na2b9jfsir5e)" height="48" id="Direction" style="stroke:#A80036;stroke-width:1.5;" width="88" x="156" y="115"/><ellipse cx="171" cy="131" fill="#ADD1B2" rx="11" ry="11" style="stroke:#A80036;stroke-width:1.0;"/><path d="M173.9688,136.6406 Q173.3906,136.9375 172.75,137.0781 Q172.1094,137.2344 171.4063,137.2344 Q168.9063,137.2344 167.5781,135.5938 Q166.2656,133.9375 166.2656,130.8125 Q166.2656,127.6875 167.5781,126.0313 Q168.9063,124.375 171.4063,124.375 Q172.1094,124.375 172.75,124.5313 Q173.4063,124.6875 173.9688,124.9844 L173.9688,127.7031 Q173.3438,127.125 172.75,126.8594 Q172.1563,126.5781 171.5313,126.5781 Q170.1875,126.5781 169.5,127.6563 Q168.8125,128.7188 168.8125,130.8125 Q168.8125,132.9063 169.5,133.9844 Q170.1875,135.0469 171.5313,135.0469 Q172.1563,135.0469 172.75,134.7813 Q173.3438,134.5 173.9688,133.9219 L173.9688,136.6406 Z " fill="#000000"/><text fill="#000000" font-family="sans-serif" font-size="12" lengthAdjust="spacing" textLength="56" x="185" y="135.1543">Direction</text><line style="stroke:#A80036;stroke-width:1.5;" x1="157" x2="243" y1="147" y2="147"/><line style="stroke:#A80036;stroke-width:1.5;" x1="157" x2="243" y1="155" y2="155"/><!--MD5=[b8ed46582af17d25e8f4609a75212b9d]
link Tree to Node--><path codeLine="1" d="M79.24,31 C79.24,31 86.4,31 89.38,31 " fill="none" id="Tree-Node" style="stroke:#A80036;stroke-width:1.0;"/><polygon fill="#A80036" points="102.44,31,93.44,27,97.44,31,93.44,35,102.44,31" style="stroke:#A80036;stroke-width:1.0;"/><line style="stroke:#A80036;stroke-width:1.0;" x1="97.44" x2="89.44" y1="31" y2="31"/><polygon fill="#A80036" points="67.24,31,73.24,35,79.24,31,73.24,27,67.24,31" style="stroke:#A80036;stroke-width:1.0;"/><!--MD5=[31b339e6aab1a248e548961024b09a33]
link Node to TypesNode--><path codeLine="2" d="M114.6255,65.2289 C114.6255,65.2289 98.48,91.56 91.22,103.4 " fill="none" id="Node-TypesNode" style="stroke:#A80036;stroke-width:1.0;"/><polygon fill="#A80036" points="84.3,114.68,92.4103,109.0922,86.9104,110.4155,85.587,104.9156,84.3,114.68" style="stroke:#A80036;stroke-width:1.0;"/><line style="stroke:#A80036;stroke-width:1.0;" x1="86.9104" x2="91.1" y1="110.4155" y2="103.595"/><polygon fill="#A80036" points="120.9,55,114.3531,58.023,114.6255,65.2289,121.1724,62.206,120.9,55" style="stroke:#A80036;stroke-width:1.0;"/><!--MD5=[04d9e02d151ce40a764f3688ffaf6c2c]
link Node to Direction--><path codeLine="3" d="M149.1,55 C159.09,71.28 172.52,93.19 183.08,110.41 " fill="none" id="Node-to-Direction" style="stroke:#A80036;stroke-width:1.0;stroke-dasharray:7.0,7.0;"/><polygon fill="#A80036" points="185.7,114.68,184.4135,104.9155,183.0899,110.4154,177.59,109.0917,185.7,114.68" style="stroke:#A80036;stroke-width:1.0;"/><!--MD5=[5b111f36f6f82d9edba46cc14da334c8]
@startuml "BST"
Tree *-> Node 
Node *- -> TypesNode 
Node ..> Direction
' TreeManagement *-> Tree 

@enduml

@startuml "BST"
Tree *-> Node 
Node *- -> TypesNode 
Node ..> Direction

@enduml

PlantUML version 1.2022.0(Tue Jan 11 11:16:42 ECT 2022)
(GPL source distribution)
Java Runtime: OpenJDK Runtime Environment
JVM: OpenJDK 64-Bit Server VM
Default Encoding: UTF-8
Language: en
Country: US
--></g></svg>